<svg width="377px" height="232px" viewBox="0 0 377 232" version="1.1" xmlns="http://www.w3.org/2000/svg" xmlns:xlink="http://www.w3.org/1999/xlink">
    <title>Group 2</title>
    <g id="Page-1" stroke="none" stroke-width="1" fill="none" fill-rule="evenodd">
        <g id="Group-2" transform="translate(-0, 0.5)">
            <path d="M341,124.846 L340.965,138.176 C340.896,161.741 325.415,185.262 294.478,203.241 C232.206,239.434 130.913,239.434 68.233,203.241 C36.69,185.036 20.931,161.134 20.9997744,137.265 L21.035,123.935" id="Path" fill="#FFF5EC" fill-rule="nonzero"/>
            <path d="M341,124.846 L340.965,138.176 C340.896,161.741 325.415,185.262 294.478,203.241 C232.206,239.434 130.913,239.434 68.233,203.241 C36.69,185.036 20.931,161.134 20.9997744,137.265 L21.035,123.935" id="Path" stroke="#00402A" stroke-width="0.5"/>
            <path d="M293.767,58.862 C356.447,95.045 356.777,153.718 294.504,189.911 C232.232,226.103 130.94,226.103 68.26,189.911 C5.58,153.727 5.25,95.054 67.523,58.862 C129.795,22.669 231.087,22.669 293.767,58.862 Z" id="Path" stroke="#00402A" stroke-width="0.5" fill="#FFFAF6" fill-rule="nonzero"/>
            <path d="M175.449,15.521 C179.973,12.912 183.683,15.03 183.702,20.221 L183.739066,33.784 C183.757,38.993 180.066,45.387 175.541,47.996 L163.736,54.815 C159.211,57.424 155.501,55.305 155.483,50.105 L155.445927,36.542 C155.427,31.342 159.119,24.949 163.643,22.34 L175.449,15.521 Z" id="Path" stroke="#00402A" stroke-width="0.5" fill="#0DA9FF" fill-rule="nonzero" stroke-linejoin="round"/>
            <path d="M164.263,5.057 C162.764,4.187 160.692,4.307 158.416,5.621 L146.61,12.44 C142.086,15.049 138.394,21.442 138.412927,26.642 L138.45,40.206 C138.45,42.796 139.375,44.619 140.855,45.479 L157.888,55.379 C156.408,54.519 155.483,52.696 155.483,50.105 L155.446,36.542 C155.427,31.342 159.119,24.949 163.643,22.34 L175.449,15.521 C177.725,14.207 179.797,14.087 181.296,14.957 L164.263,5.057 Z" id="Path" stroke="#00402A" stroke-width="0.5" fill="#6BDAFF" fill-rule="nonzero" stroke-linejoin="round"/>
            <polygon id="Path" stroke="#00402A" stroke-width="0.5" fill="#FFFFFF" fill-rule="nonzero" stroke-linejoin="round" points="164.514 77.991 157.39 82.136 150.219 77.991 157.344 73.855"/>
            <polygon id="Path" stroke="#00402A" stroke-width="0.5" fill="#89837E" fill-rule="nonzero" stroke-linejoin="round" points="164.513 77.991 164.476 89.029 157.352 93.174 157.389 82.136"/>
            <polygon id="Path" stroke="#00402A" stroke-width="0.5" fill="#615D5A" fill-rule="nonzero" stroke-linejoin="round" points="157.389 82.136 157.352 93.174 150.182 89.029 150.219 77.991"/>
            <polygon id="Path" stroke="#00402A" stroke-width="0.5" fill="#FFFFFF" fill-rule="nonzero" stroke-linejoin="round" points="289.316 104.415 282.183 108.56 275.012 104.415 282.136 100.28"/>
            <polygon id="Path" stroke="#00402A" stroke-width="0.5" fill="#FFFFFF" fill-rule="nonzero" stroke-linejoin="round" points="289.315 104.416 289.278 115.463 282.154 119.598 282.181 108.56"/>
            <polygon id="Path" stroke="#00402A" stroke-width="0.5" fill="#FFFFFF" fill-rule="nonzero" stroke-linejoin="round" points="282.182 108.56 282.154 119.598 274.984 115.463 275.011 104.416"/>
            <polygon id="Path" stroke="#00402A" stroke-width="0.5" fill="#FFFFFF" fill-rule="nonzero" stroke-linejoin="round" points="249.892 127.527 242.768 131.663 235.588 127.527 242.712 123.382"/>
            <polygon id="Path" stroke="#00402A" stroke-width="0.5" fill="#89837E" fill-rule="nonzero" stroke-linejoin="round" points="249.892 127.527 249.855 138.565 242.731 142.701 242.768 131.663"/>
            <polygon id="Path" stroke="#00402A" stroke-width="0.5" fill="#615D5A" fill-rule="nonzero" stroke-linejoin="round" points="242.767 131.663 242.73 142.701 235.56 138.565 235.587 127.527"/>
            <g id="Group" opacity="0.5" transform="translate(150.265, 9.729)" fill="#FFFFFF" fill-rule="nonzero" stroke="#00402A" stroke-linejoin="round" stroke-width="0.5">
                <polygon id="Path" points="139.143 53.496 92.651 80.512 0 27.025 46.492 -5.68434189e-14"/>
            </g>
            <polygon id="Path" stroke="#00402A" stroke-width="0.5" fill="#FFFFFF" fill-rule="nonzero" stroke-linejoin="round" points="289.407 63.225 289.277 110.531 242.776 137.557 242.915 90.241"/>
            <polygon id="Path" stroke="#00402A" stroke-width="0.5" fill="#5BD38C" fill-rule="nonzero" stroke-linejoin="round" points="262.381 87.54 262.464 117.137 246.199 126.528 246.116 96.93"/>
            <line x1="248.06" y1="101.103" x2="260.346" y2="94.312" id="Path" stroke="#00402A" stroke-width="0.5" stroke-linejoin="round"/>
            <line x1="248.06" y1="105.525" x2="260.346" y2="98.734" id="Path" stroke="#00402A" stroke-width="0.5" stroke-linejoin="round"/>
            <line x1="248.06" y1="109.948" x2="260.346" y2="103.157" id="Path" stroke="#00402A" stroke-width="0.5" stroke-linejoin="round"/>
            <line x1="248.06" y1="114.371" x2="260.346" y2="107.589" id="Path" stroke="#00402A" stroke-width="0.5" stroke-linejoin="round"/>
            <polygon id="Path" stroke="#00402A" stroke-width="0.5" fill="#FFFFFF" fill-rule="nonzero" stroke-linejoin="round" points="278.518 124.548 267.416 118.099 283.07 109.051 294.182 115.509"/>
            <polygon id="Path" stroke="#00402A" stroke-width="0.5" fill="#FFFFFF" fill-rule="nonzero" stroke-linejoin="round" points="294.182 115.509 283.07 109.051 283.006 85.504 294.117 91.962"/>
            <polygon id="Path" stroke="#00402A" stroke-width="0.5" fill="#D8CFC7" fill-rule="nonzero" stroke-linejoin="round" points="278.453 101.001 267.35 94.543 283.005 85.504 294.116 91.962"/>
            <polygon id="Path" stroke="#00402A" stroke-width="0.5" fill="#89837E" fill-rule="nonzero" stroke-linejoin="round" points="278.518 124.548 267.415 118.099 267.35 94.543 278.453 101.001"/>
            <polygon id="Path" stroke="#00402A" stroke-width="0.5" fill="#FFFFFF" fill-rule="nonzero" stroke-linejoin="round" points="294.182 115.509 294.117 91.962 278.463 101.001 278.527 124.548"/>
            <polygon id="Path" stroke="#00402A" stroke-width="0.5" fill="#B0A9A3" fill-rule="nonzero" stroke-linejoin="round" points="294.116 91.962 294.181 115.509 278.517 124.548 278.453 101.001"/>
            <line x1="292.063" y1="115.722" x2="290.703" y2="114.991" id="Path" stroke="#00402A" stroke-width="0.5" stroke-linejoin="round"/>
            <line x1="290.777" y1="114.842" x2="292.137" y2="115.573" id="Path" stroke="#00402A" stroke-width="0.5" stroke-linejoin="round"/>
            <polygon id="Path" stroke="#00402A" stroke-width="0.5" fill="#FFFFFF" fill-rule="nonzero" stroke-linejoin="round" points="292.063 115.721 290.703 114.991 290.666 114.935 292.026 115.666"/>
            <line x1="292.007" y1="112.354" x2="292.082" y2="112.345" id="Path" stroke="#00402A" stroke-width="0.5" stroke-linejoin="round"/>
            <path d="M292.137,115.573 L290.777,114.833 C291.48,114.222 291.952,113.316 292.008,112.354 L293.368,113.094 C293.312,114.065 292.831,114.972 292.137,115.573 Z" id="Path" stroke="#00402A" stroke-width="0.5" fill="#FFFFFF" fill-rule="nonzero" stroke-linejoin="round"/>
            <line x1="289.37" y1="112.724" x2="292.007" y2="112.354" id="Path" stroke="#00402A" stroke-width="0.5" stroke-linejoin="round"/>
            <polygon id="Path" stroke="#00402A" stroke-width="0.5" fill="#FFFFFF" fill-rule="nonzero" stroke-linejoin="round" points="290.703 113.325 289.343 112.585 292.016 112.206 293.367 112.946"/>
            <polygon id="Path" stroke="#00402A" stroke-width="0.5" fill="#FFFFFF" fill-rule="nonzero" stroke-linejoin="round" points="293.367 112.946 292.016 112.206 292.081 112.196 293.441 112.936"/>
            <line x1="289.251" y1="112.743" x2="289.375" y2="112.724" id="Path" stroke="#00402A" stroke-width="0.5" stroke-linejoin="round"/>
            <line x1="290.777" y1="114.842" x2="289.37" y2="112.724" id="Path" stroke="#00402A" stroke-width="0.5" stroke-linejoin="round"/>
            <path d="M293.368,112.946 L292.008,112.206 C292.008,112.206 292.008,112.178 292.008,112.159 C292.008,111.16 291.554,110.337 290.86,109.883 L292.22,110.623 C292.914,111.077 293.368,111.9 293.368,112.899 C293.368,112.918 293.368,112.927 293.368,112.946 Z" id="Path" stroke="#00402A" stroke-width="0.5" fill="#FFFFFF" fill-rule="nonzero" stroke-linejoin="round"/>
            <polygon id="Path" stroke="#00402A" stroke-width="0.5" fill="#FFFFFF" fill-rule="nonzero" stroke-linejoin="round" points="290.703 113.325 289.343 112.585 290.869 109.893 292.22 110.623"/>
            <line x1="289.232" y1="112.78" x2="289.25" y2="112.742" id="Path" stroke="#00402A" stroke-width="0.5" stroke-linejoin="round"/>
            <path d="M289.139,116.082 L287.779,115.342 C288.195,115.555 288.686,115.647 289.213,115.573 C289.741,115.499 290.24,115.268 290.656,114.935 L292.017,115.675 C291.591,116.008 291.101,116.24 290.573,116.314 C290.046,116.388 289.555,116.295 289.139,116.082 Z" id="Path" stroke="#00402A" stroke-width="0.5" fill="#FFFFFF" fill-rule="nonzero" stroke-linejoin="round"/>
            <polygon id="Path" stroke="#00402A" stroke-width="0.5" fill="#FFFFFF" fill-rule="nonzero" stroke-linejoin="round" points="289.139 116.082 287.779 115.342 289.232 112.779 290.592 113.519"/>
            <line x1="289.094" y1="112.761" x2="289.253" y2="112.742" id="Path" stroke="#00402A" stroke-width="0.5" stroke-linejoin="round"/>
            <polygon id="Path" stroke="#00402A" stroke-width="0.5" fill="#FFFFFF" fill-rule="nonzero" stroke-linejoin="round" points="290.593 113.52 290.195 114.223 290.667 114.935 292.027 115.666"/>
            <path d="M290.721,109.8 L292.081,110.54 C292.081,110.54 292.109,110.558 292.118,110.558 L290.758,109.818 C290.758,109.818 290.73,109.8 290.721,109.8 Z" id="Path" stroke="#00402A" stroke-width="0.5" fill="#FFFFFF" fill-rule="nonzero" stroke-linejoin="round"/>
            <polyline id="Path" fill="#FFFFFF" fill-rule="nonzero" points="290.48 113.353 289.12 112.613 289.185 112.604"/>
            <polyline id="Path" stroke="#00402A" stroke-width="0.5" stroke-linejoin="round" points="290.48 113.353 289.12 112.613 289.185 112.604"/>
            <polyline id="Path" fill="#FFFFFF" fill-rule="nonzero" points="289.028 116.017 287.668 115.287 289.093 112.761"/>
            <polyline id="Path" stroke="#00402A" stroke-width="0.5" stroke-linejoin="round" points="289.028 116.017 287.668 115.287 289.093 112.761"/>
            <polyline id="Path" fill="#FFFFFF" fill-rule="nonzero" points="287.789 113.88 286.438 113.14 289.093 112.761"/>
            <polyline id="Path" stroke="#00402A" stroke-width="0.5" stroke-linejoin="round" points="287.789 113.88 286.438 113.14 289.093 112.761"/>
            <g id="Group" opacity="0.5" transform="translate(286.438, 113.015)">
                <polyline id="Path" fill="#FFFFFF" fill-rule="nonzero" points="0 0.125 1.351 0.865 1.286 0.875"/>
                <polyline id="Path" stroke="#00402A" stroke-width="0.5" stroke-linejoin="round" points="0 0.125 1.351 0.865 1.286 0.875"/>
            </g>
            <line x1="287.724" y1="113.815" x2="287.724" y2="113.891" id="Path" stroke="#00402A" stroke-width="0.5" opacity="0.5" stroke-linejoin="round"/>
            <path d="M289.028,116.018 L287.668,115.277 C286.965,114.87 286.484,114.093 286.438,113.131 L287.798,113.871 C287.853,114.833 288.325,115.61 289.028,116.018 Z" id="Path" stroke="#00402A" stroke-width="0.5" fill="#FFFFFF" fill-rule="nonzero" stroke-linejoin="round"/>
            <polygon id="Path" stroke="#00402A" stroke-width="0.5" fill="#FFFFFF" fill-rule="nonzero" stroke-linejoin="round" points="287.788 113.732 286.427 112.992 289.12 112.613 290.48 113.353"/>
            <polyline id="Path" fill="#FFFFFF" fill-rule="nonzero" points="289.027 110.929 289.064 110.984 287.704 110.244"/>
            <polyline id="Path" stroke="#00402A" stroke-width="0.5" stroke-linejoin="round" points="289.027 110.929 289.064 110.984 287.704 110.244"/>
            <line x1="289.031" y1="110.929" x2="288.917" y2="111.024" id="Path" stroke="#00402A" stroke-width="0.5" stroke-linejoin="round"/>
            <polyline id="Path" fill="#FFFFFF" fill-rule="nonzero" points="289.231 112.52 287.704 110.244 289.064 110.984"/>
            <polyline id="Path" stroke="#00402A" stroke-width="0.5" stroke-linejoin="round" points="289.231 112.52 287.704 110.244 289.064 110.984"/>
            <path d="M290.721,109.8 L292.081,110.54 C291.646,110.309 291.137,110.207 290.592,110.281 C290.046,110.355 289.361,110.781 288.917,111.142 L287.548,110.355 C287.982,109.985 288.667,109.615 289.232,109.541 C289.796,109.467 290.286,109.559 290.721,109.8 Z" id="Path" stroke="#00402A" stroke-width="0.5" fill="#FFFFFF" fill-rule="nonzero" stroke-linejoin="round"/>
            <polyline id="Path" fill="#FFFFFF" fill-rule="nonzero" points="289.121 112.613 287.604 110.337 288.955 111.077 290.481 113.353"/>
            <polyline id="Path" stroke="#00402A" stroke-width="0.5" stroke-linejoin="round" points="289.121 112.613 287.604 110.337 288.955 111.077 290.481 113.353"/>
            <polyline id="Path" fill="#FFFFFF" fill-rule="nonzero" points="288.918 111.022 288.955 111.077 287.604 110.337"/>
            <polyline id="Path" stroke="#00402A" stroke-width="0.5" stroke-linejoin="round" points="288.918 111.022 288.955 111.077 287.604 110.337"/>
            <path d="M286.427,112.992 C286.427,112.992 286.427,112.965 286.427,112.946 C286.427,111.938 286.89,110.985 287.593,110.337 L288.953,111.077 C288.25,111.725 287.788,112.678 287.788,113.686 C287.788,113.705 287.788,113.714 287.788,113.732" id="Path" fill="#FFFFFF" fill-rule="nonzero"/>
            <path d="M286.427,112.992 C286.427,112.992 286.427,112.965 286.427,112.946 C286.427,111.938 286.89,110.985 287.593,110.337 L288.953,111.077 C288.25,111.725 287.788,112.678 287.788,113.686 C287.788,113.705 287.788,113.714 287.788,113.732" id="Path" stroke="#00402A" stroke-width="0.5" stroke-linejoin="round"/>
            <line x1="278.481" y1="108.199" x2="294.145" y2="99.595" id="Path" stroke="#00402A" stroke-width="0.5" stroke-linejoin="round"/>
            <line x1="285.096" y1="119.654" x2="283.736" y2="118.914" id="Path" stroke="#00402A" stroke-width="0.5" stroke-linejoin="round"/>
            <line x1="283.81" y1="118.765" x2="285.17" y2="119.505" id="Path" stroke="#00402A" stroke-width="0.5" stroke-linejoin="round"/>
            <polygon id="Path" stroke="#00402A" stroke-width="0.5" fill="#FFFFFF" fill-rule="nonzero" stroke-linejoin="round" points="285.096 119.654 283.736 118.913 283.699 118.858 285.059 119.598"/>
            <line x1="285.041" y1="116.286" x2="285.116" y2="116.276" id="Path" stroke="#00402A" stroke-width="0.5" stroke-linejoin="round"/>
            <path d="M285.17,119.505 L283.81,118.765 C284.513,118.155 284.985,117.248 285.041,116.286 L286.401,117.026 C286.345,117.997 285.864,118.904 285.17,119.505 Z" id="Path" stroke="#00402A" stroke-width="0.5" fill="#FFFFFF" fill-rule="nonzero" stroke-linejoin="round"/>
            <line x1="282.404" y1="116.656" x2="285.041" y2="116.286" id="Path" stroke="#00402A" stroke-width="0.5" stroke-linejoin="round"/>
            <polygon id="Path" stroke="#00402A" stroke-width="0.5" fill="#FFFFFF" fill-rule="nonzero" stroke-linejoin="round" points="283.736 117.257 282.376 116.517 285.05 116.138 286.401 116.878"/>
            <polygon id="Path" stroke="#00402A" stroke-width="0.5" fill="#FFFFFF" fill-rule="nonzero" stroke-linejoin="round" points="286.4 116.878 285.05 116.138 285.114 116.128 286.474 116.869"/>
            <line x1="282.283" y1="116.675" x2="282.407" y2="116.656" id="Path" stroke="#00402A" stroke-width="0.5" stroke-linejoin="round"/>
            <line x1="283.81" y1="118.765" x2="282.404" y2="116.656" id="Path" stroke="#00402A" stroke-width="0.5" stroke-linejoin="round"/>
            <path d="M286.4,116.878 L285.04,116.138 C285.04,116.138 285.04,116.11 285.04,116.091 C285.04,115.092 284.587,114.269 283.893,113.815 L285.253,114.556 C285.947,115.009 286.4,115.832 286.4,116.832 C286.4,116.85 286.4,116.859 286.4,116.878 Z" id="Path" stroke="#00402A" stroke-width="0.5" fill="#FFFFFF" fill-rule="nonzero" stroke-linejoin="round"/>
            <polygon id="Path" stroke="#00402A" stroke-width="0.5" fill="#FFFFFF" fill-rule="nonzero" stroke-linejoin="round" points="283.736 117.257 282.376 116.517 283.903 113.815 285.263 114.556"/>
            <line x1="282.265" y1="116.712" x2="282.284" y2="116.674" id="Path" stroke="#00402A" stroke-width="0.5" stroke-linejoin="round"/>
            <path d="M282.173,120.014 L280.813,119.274 C281.229,119.487 281.719,119.58 282.247,119.506 C282.774,119.432 283.274,119.2 283.69,118.867 L285.05,119.607 C284.625,119.94 284.134,120.172 283.607,120.246 C283.08,120.32 282.589,120.227 282.173,120.014 Z" id="Path" stroke="#00402A" stroke-width="0.5" fill="#FFFFFF" fill-rule="nonzero" stroke-linejoin="round"/>
            <polygon id="Path" stroke="#00402A" stroke-width="0.5" fill="#FFFFFF" fill-rule="nonzero" stroke-linejoin="round" points="282.173 120.014 280.813 119.274 282.265 116.711 283.625 117.452"/>
            <line x1="282.125" y1="116.693" x2="282.285" y2="116.674" id="Path" stroke="#00402A" stroke-width="0.5" stroke-linejoin="round"/>
            <polygon id="Path" stroke="#00402A" stroke-width="0.5" fill="#FFFFFF" fill-rule="nonzero" stroke-linejoin="round" points="283.626 117.452 283.228 118.155 283.7 118.858 285.06 119.598"/>
            <path d="M283.755,113.732 L285.115,114.472 C285.115,114.472 285.143,114.491 285.152,114.491 L283.792,113.75 C283.792,113.75 283.764,113.732 283.755,113.732 Z" id="Path" stroke="#00402A" stroke-width="0.5" fill="#FFFFFF" fill-rule="nonzero" stroke-linejoin="round"/>
            <polyline id="Path" fill="#FFFFFF" fill-rule="nonzero" points="283.513 117.285 282.153 116.545 282.218 116.536"/>
            <polyline id="Path" stroke="#00402A" stroke-width="0.5" stroke-linejoin="round" points="283.513 117.285 282.153 116.545 282.218 116.536"/>
            <polyline id="Path" fill="#FFFFFF" fill-rule="nonzero" points="282.062 119.95 280.702 119.209 282.126 116.693"/>
            <polyline id="Path" stroke="#00402A" stroke-width="0.5" stroke-linejoin="round" points="282.062 119.95 280.702 119.209 282.126 116.693"/>
            <polyline id="Path" fill="#FFFFFF" fill-rule="nonzero" points="280.83 117.803 279.47 117.063 282.126 116.693"/>
            <polyline id="Path" stroke="#00402A" stroke-width="0.5" stroke-linejoin="round" points="280.83 117.803 279.47 117.063 282.126 116.693"/>
            <g id="Group" opacity="0.5" transform="translate(279.47, 116.9375)">
                <polyline id="Path" fill="#FFFFFF" fill-rule="nonzero" points="0 0.1255 1.36 0.8655 1.286 0.8745"/>
                <polyline id="Path" stroke="#00402A" stroke-width="0.5" stroke-linejoin="round" points="0 0.1255 1.36 0.8655 1.286 0.8745"/>
            </g>
            <line x1="280.757" y1="117.748" x2="280.757" y2="117.814" id="Path" stroke="#00402A" stroke-width="0.5" opacity="0.5" stroke-linejoin="round"/>
            <path d="M282.061,119.95 L280.701,119.209 C279.998,118.802 279.516,118.025 279.47,117.063 L280.83,117.803 C280.886,118.765 281.358,119.543 282.061,119.95 Z" id="Path" stroke="#00402A" stroke-width="0.5" fill="#FFFFFF" fill-rule="nonzero" stroke-linejoin="round"/>
            <polygon id="Path" stroke="#00402A" stroke-width="0.5" fill="#FFFFFF" fill-rule="nonzero" stroke-linejoin="round" points="280.821 117.664 279.461 116.924 282.153 116.545 283.513 117.285"/>
            <polyline id="Path" fill="#FFFFFF" fill-rule="nonzero" points="282.061 114.852 282.098 114.907 280.747 114.167"/>
            <polyline id="Path" stroke="#00402A" stroke-width="0.5" stroke-linejoin="round" points="282.061 114.852 282.098 114.907 280.747 114.167"/>
            <line x1="282.065" y1="114.852" x2="281.95" y2="114.956" id="Path" stroke="#00402A" stroke-width="0.5" stroke-linejoin="round"/>
            <polyline id="Path" fill="#FFFFFF" fill-rule="nonzero" points="282.264 116.452 280.747 114.167 282.098 114.907"/>
            <polyline id="Path" stroke="#00402A" stroke-width="0.5" stroke-linejoin="round" points="282.264 116.452 280.747 114.167 282.098 114.907"/>
            <path d="M283.755,113.732 L285.115,114.472 C284.68,114.241 284.171,114.139 283.625,114.213 C283.079,114.287 282.394,114.713 281.95,115.074 L280.581,114.287 C281.016,113.917 281.701,113.547 282.265,113.473 C282.829,113.399 283.32,113.492 283.755,113.732 Z" id="Path" stroke="#00402A" stroke-width="0.5" fill="#FFFFFF" fill-rule="nonzero" stroke-linejoin="round"/>
            <polyline id="Path" fill="#FFFFFF" fill-rule="nonzero" points="282.154 116.545 280.637 114.269 281.988 115.009 283.514 117.285"/>
            <polyline id="Path" stroke="#00402A" stroke-width="0.5" stroke-linejoin="round" points="282.154 116.545 280.637 114.269 281.988 115.009 283.514 117.285"/>
            <polyline id="Path" fill="#FFFFFF" fill-rule="nonzero" points="281.951 114.954 281.988 115.009 280.637 114.269"/>
            <polyline id="Path" stroke="#00402A" stroke-width="0.5" stroke-linejoin="round" points="281.951 114.954 281.988 115.009 280.637 114.269"/>
            <path d="M279.461,116.924 C279.461,116.924 279.461,116.897 279.461,116.878 C279.461,115.87 279.924,114.917 280.627,114.269 L281.987,115.009 C281.284,115.657 280.821,116.61 280.821,117.618 C280.821,117.637 280.821,117.646 280.821,117.665" id="Path" fill="#FFFFFF" fill-rule="nonzero"/>
            <path d="M279.461,116.924 C279.461,116.924 279.461,116.897 279.461,116.878 C279.461,115.87 279.924,114.917 280.627,114.269 L281.987,115.009 C281.284,115.657 280.821,116.61 280.821,117.618 C280.821,117.637 280.821,117.646 280.821,117.665" id="Path" stroke="#00402A" stroke-width="0.5" stroke-linejoin="round"/>
            <path d="M90.884,74.41 C95.409,71.801 99.119,73.92 99.137,79.111 L99.174073,92.674 C99.193,97.883 95.501,104.276 90.977,106.885 L79.171,113.704 C74.647,116.313 70.937,114.195 70.918,108.995 L70.8809344,95.431 C70.863,90.232 74.554,83.838 79.079,81.229 L90.884,74.41 Z" id="Path" stroke="#00402A" stroke-width="0.5" fill="#0DA9FF" fill-rule="nonzero" stroke-linejoin="round"/>
            <path d="M79.699,63.946 C78.2,63.077 76.128,63.197 73.852,64.511 L62.046,71.33 C57.522,73.939 53.83,80.332 53.8479345,85.532 L53.885,99.095 C53.885,101.686 54.811,103.509 56.291,104.369 L73.324,114.269 C71.844,113.408 70.919,111.586 70.919,108.995 L70.882,95.431 C70.863,90.232 74.555,83.839 79.079,81.229 L90.885,74.411 C93.161,73.097 95.233,72.977 96.732,73.846 L79.699,63.946 Z" id="Path" stroke="#00402A" stroke-width="0.5" fill="#6BDAFF" fill-rule="nonzero" stroke-linejoin="round"/>
            <polygon id="Path" stroke="#00402A" stroke-width="0.5" fill="#FFFFFF" fill-rule="nonzero" stroke-linejoin="round" points="79.95 136.881 72.826 141.026 65.646 136.881 72.77 132.745"/>
            <polygon id="Path" stroke="#00402A" stroke-width="0.5" fill="#89837E" fill-rule="nonzero" stroke-linejoin="round" points="79.949 136.881 79.912 147.919 72.788 152.064 72.825 141.026"/>
            <polygon id="Path" stroke="#00402A" stroke-width="0.5" fill="#615D5A" fill-rule="nonzero" stroke-linejoin="round" points="72.825 141.026 72.788 152.064 65.617 147.919 65.645 136.881"/>
            <polygon id="Path" stroke="#00402A" stroke-width="0.5" fill="#FFFFFF" fill-rule="nonzero" stroke-linejoin="round" points="204.742 163.305 197.617 167.45 190.447 163.305 197.571 159.169"/>
            <polygon id="Path" stroke="#00402A" stroke-width="0.5" fill="#FFFFFF" fill-rule="nonzero" stroke-linejoin="round" points="204.741 163.305 204.713 174.352 197.589 178.488 197.617 167.45"/>
            <polygon id="Path" stroke="#00402A" stroke-width="0.5" fill="#FFFFFF" fill-rule="nonzero" stroke-linejoin="round" points="197.618 167.45 197.59 178.488 190.419 174.352 190.447 163.305"/>
            <polygon id="Path" stroke="#00402A" stroke-width="0.5" fill="#FFFFFF" fill-rule="nonzero" stroke-linejoin="round" points="165.318 186.417 158.194 190.553 151.024 186.417 158.148 182.272"/>
            <polygon id="Path" stroke="#00402A" stroke-width="0.5" fill="#89837E" fill-rule="nonzero" stroke-linejoin="round" points="165.318 186.417 165.29 197.455 158.166 201.59 158.194 190.553"/>
            <polygon id="Path" stroke="#00402A" stroke-width="0.5" fill="#615D5A" fill-rule="nonzero" stroke-linejoin="round" points="158.194 190.553 158.166 201.59 150.996 197.455 151.024 186.417"/>
            <polygon id="Path" stroke="#00402A" stroke-width="0.5" fill="#FFFFFF" fill-rule="nonzero" stroke-linejoin="round" points="204.842 122.114 158.35 149.131 65.69 95.644 112.192 68.619"/>
            <polygon id="Path" stroke="#00402A" stroke-width="0.5" fill="#FFFFFF" fill-rule="nonzero" stroke-linejoin="round" points="204.842 122.114 204.713 169.42 158.211 196.446 158.35 149.13"/>
            <polygon id="Path" stroke="#00402A" stroke-width="0.5" fill="#FFFFFF" fill-rule="nonzero" stroke-linejoin="round" points="158.35 149.131 158.212 196.446 65.561 142.95 65.69 95.644"/>
            <polygon id="Path" stroke="#00402A" stroke-width="0.5" fill="#5BD38C" fill-rule="nonzero" stroke-linejoin="round" points="177.818 146.429 177.901 176.027 161.636 185.418 161.552 155.82"/>
            <line x1="163.485" y1="159.993" x2="175.781" y2="153.202" id="Path" stroke="#00402A" stroke-width="0.5" stroke-linejoin="round"/>
            <line x1="163.485" y1="164.416" x2="175.781" y2="157.625" id="Path" stroke="#00402A" stroke-width="0.5" stroke-linejoin="round"/>
            <line x1="163.485" y1="168.838" x2="175.781" y2="162.056" id="Path" stroke="#00402A" stroke-width="0.5" stroke-linejoin="round"/>
            <line x1="163.485" y1="173.26" x2="175.781" y2="166.479" id="Path" stroke="#00402A" stroke-width="0.5" stroke-linejoin="round"/>
            <path d="M117.651,83.876 C120.759,85.67 120.778,88.594 117.678,90.389 L103.106,98.855 C100.016,100.65 94.974,100.65 91.856,98.855 L90.958,98.337 C87.85,96.542 87.831,93.618 90.921,91.823 L105.493,83.357 C108.584,81.563 113.635,81.553 116.744,83.357 L117.641,83.876 L117.651,83.876 Z" id="Path" stroke="#00402A" stroke-width="0.5" fill="#FFFFFF" fill-rule="nonzero" stroke-linejoin="round"/>
            <path d="M103.107,98.864 L117.679,90.399 C120.769,88.604 120.76,85.68 117.652,83.885 L116.754,83.367 C113.645,81.572 108.594,81.572 105.503,83.367 L90.931,91.833 C87.841,93.628 87.86,96.551 90.968,98.346 L91.866,98.864 C94.975,100.659 100.017,100.659 103.116,98.864" id="Path" fill="#89837E" fill-rule="nonzero"/>
            <path d="M103.107,98.864 L117.679,90.399 C120.769,88.604 120.76,85.68 117.652,83.885 L116.754,83.367 C113.645,81.572 108.594,81.572 105.503,83.367 L90.931,91.833 C87.841,93.628 87.86,96.551 90.968,98.346 L91.866,98.864 C94.975,100.659 100.017,100.659 103.116,98.864" id="Path" stroke="#00402A" stroke-width="0.5" stroke-linejoin="round"/>
            <path d="M147.48,100.835 C150.588,102.629 150.607,105.553 147.507,107.348 L132.935,115.814 C129.845,117.609 124.803,117.609 121.685,115.814 L120.787,115.296 C117.679,113.501 117.66,110.577 120.75,108.782 L135.322,100.316 C138.413,98.522 143.464,98.512 146.573,100.316 L147.47,100.835 L147.48,100.835 Z" id="Path" stroke="#00402A" stroke-width="0.5" fill="#FFFFFF" fill-rule="nonzero" stroke-linejoin="round"/>
            <path d="M132.935,115.823 L147.507,107.358 C150.598,105.563 150.588,102.639 147.48,100.844 L146.582,100.326 C143.473,98.531 138.422,98.531 135.332,100.326 L120.76,108.792 C117.669,110.587 117.688,113.51 120.797,115.305 L121.694,115.823 C124.803,117.618 129.845,117.618 132.945,115.823" id="Path" fill="#89837E" fill-rule="nonzero"/>
            <path d="M132.935,115.823 L147.507,107.358 C150.598,105.563 150.588,102.639 147.48,100.844 L146.582,100.326 C143.473,98.531 138.422,98.531 135.332,100.326 L120.76,108.792 C117.669,110.587 117.688,113.51 120.797,115.305 L121.694,115.823 C124.803,117.618 129.845,117.618 132.945,115.823" id="Path" stroke="#00402A" stroke-width="0.5" stroke-linejoin="round"/>
            <path d="M177.494,118.589 C180.602,120.384 180.621,123.308 177.522,125.103 L162.949,133.569 C159.859,135.364 154.817,135.364 151.699,133.569 L150.801,133.051 C147.693,131.256 147.674,128.332 150.764,126.537 L165.336,118.071 C168.427,116.276 173.478,116.267 176.587,118.071 L177.485,118.589 L177.494,118.589 Z" id="Path" stroke="#00402A" stroke-width="0.5" fill="#FFFFFF" fill-rule="nonzero" stroke-linejoin="round"/>
            <path d="M162.949,133.578 L177.521,125.112 C180.612,123.317 180.602,120.394 177.494,118.599 L176.596,118.081 C173.487,116.286 168.436,116.286 165.346,118.081 L150.773,126.546 C147.683,128.341 147.702,131.265 150.81,133.06 L151.708,133.578 C154.817,135.373 159.859,135.373 162.958,133.578" id="Path" fill="#89837E" fill-rule="nonzero"/>
            <path d="M162.949,133.578 L177.521,125.112 C180.612,123.317 180.602,120.394 177.494,118.599 L176.596,118.081 C173.487,116.286 168.436,116.286 165.346,118.081 L150.773,126.546 C147.683,128.341 147.702,131.265 150.81,133.06 L151.708,133.578 C154.817,135.373 159.859,135.373 162.958,133.578" id="Path" stroke="#00402A" stroke-width="0.5" stroke-linejoin="round"/>
            <polygon id="Path" stroke="#00402A" stroke-width="0.5" fill="#B0A9A3" fill-rule="nonzero" stroke-linejoin="round" points="99.008 118.673 98.897 158.013 84.519 149.714 84.63 110.364"/>
            <polygon id="Path" stroke="#00402A" stroke-width="0.5" fill="#D8CFC7" fill-rule="nonzero" stroke-linejoin="round" points="82.336 108.819 82.225 148.159 67.847 139.86 67.958 100.511"/>
            <line x1="74.222" y1="104.276" x2="74.222" y2="143.681" id="Path" stroke="#00402A" stroke-width="0.5" stroke-linejoin="round"/>
            <line x1="71.751" y1="127.407" x2="76.701" y2="130.303" id="Path" stroke="#00402A" stroke-width="0.5" stroke-linejoin="round"/>
            <polygon id="Path" stroke="#00402A" stroke-width="0.5" stroke-linejoin="round" points="156.992 149.982 156.835 194.152 66.673 142.062 66.793 98.272"/>
            <polygon id="Path" stroke="#00402A" stroke-width="0.5" fill="#D8CFC7" fill-rule="nonzero" stroke-linejoin="round" points="116.041 128.517 115.93 167.866 101.552 159.567 101.663 120.218"/>
            <line x1="107.928" y1="123.983" x2="107.928" y2="163.388" id="Path" stroke="#00402A" stroke-width="0.5" stroke-linejoin="round"/>
            <line x1="105.457" y1="147.114" x2="110.407" y2="150" id="Path" stroke="#00402A" stroke-width="0.5" stroke-linejoin="round"/>
            <polygon id="Path" stroke="#00A443" stroke-width="0.5" stroke-linejoin="round" points="155.085 151.305 154.974 190.654 140.596 182.346 140.707 143.006"/>
            <line x1="140.727" y1="158.198" x2="155.059" y2="166.525" id="Path" stroke="#00A443" stroke-width="0.5" stroke-linejoin="round"/>
            <line x1="140.727" y1="166.867" x2="155.059" y2="175.194" id="Path" stroke="#00A443" stroke-width="0.5" stroke-linejoin="round"/>
            <line x1="140.727" y1="149.529" x2="155.059" y2="157.865" id="Path" stroke="#00A443" stroke-width="0.5" stroke-linejoin="round"/>
            <line x1="140.727" y1="175.536" x2="155.059" y2="183.863" id="Path" stroke="#00A443" stroke-width="0.5" stroke-linejoin="round"/>
            <polygon id="Path" stroke="#00402A" stroke-width="0.5" fill="#FFFFFF" fill-rule="nonzero" stroke-linejoin="round" points="193.954 183.438 182.851 176.989 198.506 167.95 209.617 174.398"/>
            <polygon id="Path" stroke="#00402A" stroke-width="0.5" fill="#FFFFFF" fill-rule="nonzero" stroke-linejoin="round" points="209.618 174.398 198.506 167.949 198.442 144.394 209.544 150.852"/>
            <polygon id="Path" stroke="#00402A" stroke-width="0.5" fill="#D8CFC7" fill-rule="nonzero" stroke-linejoin="round" points="193.888 159.891 182.786 153.433 198.44 144.394 209.543 150.852"/>
            <polygon id="Path" stroke="#00402A" stroke-width="0.5" fill="#89837E" fill-rule="nonzero" stroke-linejoin="round" points="193.953 183.438 182.851 176.989 182.786 153.433 193.889 159.891"/>
            <polygon id="Path" stroke="#00402A" stroke-width="0.5" fill="#FFFFFF" fill-rule="nonzero" stroke-linejoin="round" points="209.618 174.398 209.553 150.852 193.898 159.891 193.963 183.438"/>
            <polygon id="Path" stroke="#00402A" stroke-width="0.5" fill="#B0A9A3" fill-rule="nonzero" stroke-linejoin="round" points="209.543 150.852 209.617 174.398 193.953 183.438 193.888 159.891"/>
            <line x1="207.489" y1="174.611" x2="206.138" y2="173.88" id="Path" stroke="#00402A" stroke-width="0.5" stroke-linejoin="round"/>
            <line x1="206.213" y1="173.732" x2="207.564" y2="174.463" id="Path" stroke="#00402A" stroke-width="0.5" stroke-linejoin="round"/>
            <polygon id="Path" stroke="#00402A" stroke-width="0.5" fill="#FFFFFF" fill-rule="nonzero" stroke-linejoin="round" points="207.489 174.611 206.138 173.88 206.101 173.825 207.452 174.556"/>
            <line x1="207.443" y1="171.244" x2="207.518" y2="171.234" id="Path" stroke="#00402A" stroke-width="0.5" stroke-linejoin="round"/>
            <path d="M207.564,174.463 L206.204,173.723 C206.907,173.113 207.379,172.206 207.434,171.244 L208.794,171.984 C208.739,172.955 208.258,173.862 207.564,174.463 Z" id="Path" stroke="#00402A" stroke-width="0.5" fill="#FFFFFF" fill-rule="nonzero" stroke-linejoin="round"/>
            <line x1="204.797" y1="171.614" x2="207.443" y2="171.244" id="Path" stroke="#00402A" stroke-width="0.5" stroke-linejoin="round"/>
            <polygon id="Path" stroke="#00402A" stroke-width="0.5" fill="#FFFFFF" fill-rule="nonzero" stroke-linejoin="round" points="206.129 172.215 204.778 171.475 207.452 171.104 208.803 171.835"/>
            <polygon id="Path" stroke="#00402A" stroke-width="0.5" fill="#FFFFFF" fill-rule="nonzero" stroke-linejoin="round" points="208.803 171.835 207.452 171.104 207.517 171.095 208.877 171.826"/>
            <line x1="204.687" y1="171.632" x2="204.801" y2="171.613" id="Path" stroke="#00402A" stroke-width="0.5" stroke-linejoin="round"/>
            <line x1="206.213" y1="173.732" x2="204.797" y2="171.613" id="Path" stroke="#00402A" stroke-width="0.5" stroke-linejoin="round"/>
            <path d="M208.802,171.835 L207.442,171.095 C207.442,171.095 207.442,171.067 207.442,171.049 C207.442,170.05 206.989,169.226 206.295,168.773 L207.655,169.513 C208.349,169.966 208.802,170.79 208.802,171.789 C208.802,171.808 208.802,171.817 208.802,171.835 Z" id="Path" stroke="#00402A" stroke-width="0.5" fill="#FFFFFF" fill-rule="nonzero" stroke-linejoin="round"/>
            <polygon id="Path" stroke="#00402A" stroke-width="0.5" fill="#FFFFFF" fill-rule="nonzero" stroke-linejoin="round" points="206.129 172.215 204.778 171.475 206.305 168.782 207.655 169.522"/>
            <line x1="204.667" y1="171.669" x2="204.686" y2="171.632" id="Path" stroke="#00402A" stroke-width="0.5" stroke-linejoin="round"/>
            <path d="M204.574,174.972 L203.214,174.232 C203.63,174.445 204.121,174.537 204.648,174.463 C205.176,174.389 205.675,174.158 206.092,173.825 L207.452,174.565 C207.026,174.898 206.536,175.129 206.008,175.203 C205.481,175.277 204.991,175.185 204.574,174.972 Z" id="Path" stroke="#00402A" stroke-width="0.5" fill="#FFFFFF" fill-rule="nonzero" stroke-linejoin="round"/>
            <polygon id="Path" stroke="#00402A" stroke-width="0.5" fill="#FFFFFF" fill-rule="nonzero" stroke-linejoin="round" points="204.574 174.972 203.214 174.232 204.667 171.669 206.018 172.409"/>
            <line x1="204.528" y1="171.651" x2="204.688" y2="171.632" id="Path" stroke="#00402A" stroke-width="0.5" stroke-linejoin="round"/>
            <polygon id="Path" stroke="#00402A" stroke-width="0.5" fill="#FFFFFF" fill-rule="nonzero" stroke-linejoin="round" points="206.018 172.409 205.629 173.112 206.101 173.825 207.452 174.556"/>
            <path d="M206.147,168.69 L207.508,169.43 C207.508,169.43 207.535,169.449 207.545,169.449 L206.184,168.708 C206.184,168.708 206.157,168.69 206.147,168.69 Z" id="Path" stroke="#00402A" stroke-width="0.5" fill="#FFFFFF" fill-rule="nonzero" stroke-linejoin="round"/>
            <polyline id="Path" fill="#FFFFFF" fill-rule="nonzero" points="205.916 172.243 204.556 171.512 204.62 171.502"/>
            <polyline id="Path" stroke="#00402A" stroke-width="0.5" stroke-linejoin="round" points="205.916 172.243 204.556 171.512 204.62 171.502"/>
            <polyline id="Path" fill="#FFFFFF" fill-rule="nonzero" points="204.464 174.907 203.104 174.176 204.529 171.65"/>
            <polyline id="Path" stroke="#00402A" stroke-width="0.5" stroke-linejoin="round" points="204.464 174.907 203.104 174.176 204.529 171.65"/>
            <polyline id="Path" fill="#FFFFFF" fill-rule="nonzero" points="203.225 172.77 201.874 172.03 204.529 171.65"/>
            <polyline id="Path" stroke="#00402A" stroke-width="0.5" stroke-linejoin="round" points="203.225 172.77 201.874 172.03 204.529 171.65"/>
            <g id="Group" opacity="0.5" transform="translate(201.874, 171.9045)">
                <polyline id="Path" fill="#FFFFFF" fill-rule="nonzero" points="0 0.1255 1.351 0.8655 1.277 0.8745"/>
                <polyline id="Path" stroke="#00402A" stroke-width="0.5" stroke-linejoin="round" points="0 0.1255 1.351 0.8655 1.277 0.8745"/>
            </g>
            <line x1="203.149" y1="172.705" x2="203.149" y2="172.78" id="Path" stroke="#00402A" stroke-width="0.5" opacity="0.5" stroke-linejoin="round"/>
            <path d="M204.464,174.907 L203.104,174.167 C202.401,173.76 201.92,172.983 201.874,172.021 L203.234,172.761 C203.289,173.723 203.761,174.5 204.464,174.907 Z" id="Path" stroke="#00402A" stroke-width="0.5" fill="#FFFFFF" fill-rule="nonzero" stroke-linejoin="round"/>
            <polygon id="Path" stroke="#00402A" stroke-width="0.5" fill="#FFFFFF" fill-rule="nonzero" stroke-linejoin="round" points="203.224 172.622 201.864 171.882 204.556 171.512 205.916 172.243"/>
            <polyline id="Path" fill="#FFFFFF" fill-rule="nonzero" points="204.464 169.818 204.501 169.874 203.141 169.134"/>
            <polyline id="Path" stroke="#00402A" stroke-width="0.5" stroke-linejoin="round" points="204.464 169.818 204.501 169.874 203.141 169.134"/>
            <line x1="204.467" y1="169.818" x2="204.353" y2="169.914" id="Path" stroke="#00402A" stroke-width="0.5" stroke-linejoin="round"/>
            <polyline id="Path" fill="#FFFFFF" fill-rule="nonzero" points="204.667 171.41 203.141 169.134 204.501 169.874"/>
            <polyline id="Path" stroke="#00402A" stroke-width="0.5" stroke-linejoin="round" points="204.667 171.41 203.141 169.134 204.501 169.874"/>
            <path d="M206.148,168.69 L207.508,169.43 C207.073,169.199 206.564,169.097 206.018,169.171 C205.472,169.245 204.788,169.67 204.343,170.031 L202.974,169.245 C203.409,168.875 204.094,168.505 204.658,168.431 C205.222,168.357 205.713,168.449 206.148,168.69 Z" id="Path" stroke="#00402A" stroke-width="0.5" fill="#FFFFFF" fill-rule="nonzero" stroke-linejoin="round"/>
            <polyline id="Path" fill="#FFFFFF" fill-rule="nonzero" points="204.556 171.512 203.03 169.227 204.39 169.967 205.916 172.243"/>
            <polyline id="Path" stroke="#00402A" stroke-width="0.5" stroke-linejoin="round" points="204.556 171.512 203.03 169.227 204.39 169.967 205.916 172.243"/>
            <polyline id="Path" fill="#FFFFFF" fill-rule="nonzero" points="204.353 169.911 204.39 169.967 203.03 169.227"/>
            <polyline id="Path" stroke="#00402A" stroke-width="0.5" stroke-linejoin="round" points="204.353 169.911 204.39 169.967 203.03 169.227"/>
            <path d="M201.864,171.882 C201.864,171.882 201.864,171.854 201.864,171.836 C201.864,170.827 202.327,169.874 203.03,169.227 L204.39,169.967 C203.687,170.614 203.224,171.567 203.224,172.576 C203.224,172.594 203.224,172.604 203.224,172.622" id="Path" fill="#FFFFFF" fill-rule="nonzero"/>
            <path d="M201.864,171.882 C201.864,171.882 201.864,171.854 201.864,171.836 C201.864,170.827 202.327,169.874 203.03,169.227 L204.39,169.967 C203.687,170.614 203.224,171.567 203.224,172.576 C203.224,172.594 203.224,172.604 203.224,172.622" id="Path" stroke="#00402A" stroke-width="0.5" stroke-linejoin="round"/>
            <line x1="193.916" y1="167.089" x2="209.58" y2="158.485" id="Path" stroke="#00402A" stroke-width="0.5" stroke-linejoin="round"/>
            <line x1="200.532" y1="178.543" x2="199.172" y2="177.803" id="Path" stroke="#00402A" stroke-width="0.5" stroke-linejoin="round"/>
            <line x1="199.246" y1="177.655" x2="200.596" y2="178.395" id="Path" stroke="#00402A" stroke-width="0.5" stroke-linejoin="round"/>
            <polygon id="Path" stroke="#00402A" stroke-width="0.5" fill="#FFFFFF" fill-rule="nonzero" stroke-linejoin="round" points="200.532 178.543 199.172 177.803 199.135 177.748 200.495 178.488"/>
            <line x1="200.475" y1="175.176" x2="200.551" y2="175.167" id="Path" stroke="#00402A" stroke-width="0.5" stroke-linejoin="round"/>
            <path d="M200.596,178.396 L199.236,177.655 C199.939,177.045 200.411,176.138 200.467,175.176 L201.827,175.916 C201.771,176.887 201.29,177.794 200.596,178.396 Z" id="Path" stroke="#00402A" stroke-width="0.5" fill="#FFFFFF" fill-rule="nonzero" stroke-linejoin="round"/>
            <line x1="197.83" y1="175.546" x2="200.476" y2="175.176" id="Path" stroke="#00402A" stroke-width="0.5" stroke-linejoin="round"/>
            <polygon id="Path" stroke="#00402A" stroke-width="0.5" fill="#FFFFFF" fill-rule="nonzero" stroke-linejoin="round" points="199.163 176.147 197.812 175.407 200.486 175.027 201.837 175.768"/>
            <polygon id="Path" stroke="#00402A" stroke-width="0.5" fill="#FFFFFF" fill-rule="nonzero" stroke-linejoin="round" points="201.836 175.767 200.485 175.027 200.55 175.018 201.91 175.758"/>
            <line x1="197.719" y1="175.565" x2="197.833" y2="175.546" id="Path" stroke="#00402A" stroke-width="0.5" stroke-linejoin="round"/>
            <line x1="199.245" y1="177.655" x2="197.83" y2="175.546" id="Path" stroke="#00402A" stroke-width="0.5" stroke-linejoin="round"/>
            <path d="M201.837,175.768 L200.477,175.027 C200.477,175.027 200.477,175 200.477,174.981 C200.477,173.982 200.023,173.158 199.329,172.705 L200.689,173.445 C201.383,173.899 201.837,174.722 201.837,175.721 C201.837,175.74 201.837,175.749 201.837,175.768 Z" id="Path" stroke="#00402A" stroke-width="0.5" fill="#FFFFFF" fill-rule="nonzero" stroke-linejoin="round"/>
            <polygon id="Path" stroke="#00402A" stroke-width="0.5" fill="#FFFFFF" fill-rule="nonzero" stroke-linejoin="round" points="199.163 176.147 197.812 175.407 199.339 172.705 200.689 173.445"/>
            <line x1="197.7" y1="175.601" x2="197.719" y2="175.564" id="Path" stroke="#00402A" stroke-width="0.5" stroke-linejoin="round"/>
            <path d="M197.609,178.904 L196.249,178.164 C196.665,178.377 197.155,178.469 197.683,178.395 C198.21,178.321 198.71,178.09 199.126,177.757 L200.486,178.497 C200.06,178.83 199.57,179.061 199.043,179.135 C198.515,179.209 198.025,179.117 197.609,178.904 Z" id="Path" stroke="#00402A" stroke-width="0.5" fill="#FFFFFF" fill-rule="nonzero" stroke-linejoin="round"/>
            <polygon id="Path" stroke="#00402A" stroke-width="0.5" fill="#FFFFFF" fill-rule="nonzero" stroke-linejoin="round" points="197.609 178.904 196.249 178.164 197.701 175.601 199.052 176.341"/>
            <line x1="197.562" y1="175.583" x2="197.721" y2="175.564" id="Path" stroke="#00402A" stroke-width="0.5" stroke-linejoin="round"/>
            <polygon id="Path" stroke="#00402A" stroke-width="0.5" fill="#FFFFFF" fill-rule="nonzero" stroke-linejoin="round" points="199.051 176.341 198.663 177.044 199.134 177.748 200.495 178.488"/>
            <path d="M199.181,172.622 L200.541,173.362 C200.541,173.362 200.569,173.381 200.578,173.381 L199.218,172.641 C199.218,172.641 199.19,172.622 199.181,172.622 Z" id="Path" stroke="#00402A" stroke-width="0.5" fill="#FFFFFF" fill-rule="nonzero" stroke-linejoin="round"/>
            <polyline id="Path" fill="#FFFFFF" fill-rule="nonzero" points="198.949 176.175 197.589 175.435 197.654 175.425"/>
            <polyline id="Path" stroke="#00402A" stroke-width="0.5" stroke-linejoin="round" points="198.949 176.175 197.589 175.435 197.654 175.425"/>
            <polyline id="Path" fill="#FFFFFF" fill-rule="nonzero" points="197.498 178.839 196.138 178.099 197.563 175.583"/>
            <polyline id="Path" stroke="#00402A" stroke-width="0.5" stroke-linejoin="round" points="197.498 178.839 196.138 178.099 197.563 175.583"/>
            <polyline id="Path" fill="#FFFFFF" fill-rule="nonzero" points="196.257 176.693 194.906 175.962 197.562 175.583"/>
            <polyline id="Path" stroke="#00402A" stroke-width="0.5" stroke-linejoin="round" points="196.257 176.693 194.906 175.962 197.562 175.583"/>
            <g id="Group" opacity="0.5" transform="translate(194.906, 175.832)">
                <polyline id="Path" fill="#FFFFFF" fill-rule="nonzero" points="0 0.13 1.351 0.861 1.286 0.87"/>
                <polyline id="Path" stroke="#00402A" stroke-width="0.5" stroke-linejoin="round" points="0 0.13 1.351 0.861 1.286 0.87"/>
            </g>
            <line x1="196.192" y1="176.637" x2="196.192" y2="176.703" id="Path" stroke="#00402A" stroke-width="0.5" opacity="0.5" stroke-linejoin="round"/>
            <path d="M197.497,178.839 L196.137,178.099 C195.434,177.692 194.953,176.915 194.906,175.953 L196.266,176.693 C196.322,177.655 196.794,178.432 197.497,178.839 Z" id="Path" stroke="#00402A" stroke-width="0.5" fill="#FFFFFF" fill-rule="nonzero" stroke-linejoin="round"/>
            <polygon id="Path" stroke="#00402A" stroke-width="0.5" fill="#FFFFFF" fill-rule="nonzero" stroke-linejoin="round" points="196.257 176.554 194.897 175.814 197.589 175.435 198.949 176.175"/>
            <polyline id="Path" fill="#FFFFFF" fill-rule="nonzero" points="197.497 173.741 197.534 173.797 196.174 173.066"/>
            <polyline id="Path" stroke="#00402A" stroke-width="0.5" stroke-linejoin="round" points="197.497 173.741 197.534 173.797 196.174 173.066"/>
            <line x1="197.5" y1="173.742" x2="197.386" y2="173.847" id="Path" stroke="#00402A" stroke-width="0.5" stroke-linejoin="round"/>
            <polyline id="Path" fill="#FFFFFF" fill-rule="nonzero" points="197.701 175.342 196.174 173.066 197.534 173.797"/>
            <polyline id="Path" stroke="#00402A" stroke-width="0.5" stroke-linejoin="round" points="197.701 175.342 196.174 173.066 197.534 173.797"/>
            <path d="M199.181,172.622 L200.541,173.362 C200.107,173.131 199.598,173.029 199.052,173.103 C198.506,173.177 197.821,173.603 197.377,173.963 L196.008,173.177 C196.443,172.807 197.127,172.437 197.692,172.363 C198.256,172.289 198.746,172.381 199.181,172.622 Z" id="Path" stroke="#00402A" stroke-width="0.5" fill="#FFFFFF" fill-rule="nonzero" stroke-linejoin="round"/>
            <polyline id="Path" fill="#FFFFFF" fill-rule="nonzero" points="197.59 175.435 196.072 173.159 197.423 173.899 198.95 176.175"/>
            <polyline id="Path" stroke="#00402A" stroke-width="0.5" stroke-linejoin="round" points="197.59 175.435 196.072 173.159 197.423 173.899 198.95 176.175"/>
            <polyline id="Path" fill="#FFFFFF" fill-rule="nonzero" points="197.386 173.843 197.423 173.899 196.072 173.159"/>
            <polyline id="Path" stroke="#00402A" stroke-width="0.5" stroke-linejoin="round" points="197.386 173.843 197.423 173.899 196.072 173.159"/>
            <path d="M194.897,175.814 C194.897,175.814 194.897,175.786 194.897,175.768 C194.897,174.759 195.36,173.806 196.063,173.159 L197.423,173.899 C196.72,174.547 196.257,175.499 196.257,176.508 C196.257,176.526 196.257,176.536 196.257,176.554" id="Path" fill="#FFFFFF" fill-rule="nonzero"/>
            <path d="M194.897,175.814 C194.897,175.814 194.897,175.786 194.897,175.768 C194.897,174.759 195.36,173.806 196.063,173.159 L197.423,173.899 C196.72,174.547 196.257,175.499 196.257,176.508 C196.257,176.526 196.257,176.536 196.257,176.554" id="Path" stroke="#00402A" stroke-width="0.5" stroke-linejoin="round"/>
            <path d="M212.402,24.56 L212.3,46.608 C212.3,47.089 212.041,47.533 211.624,47.774 L200.226,54.361 C199.421,54.824 198.44,54.842 197.626,54.417 L191.991,51.484 C191.538,51.252 191.26,50.781 191.26,50.272 L191.362,28.196" id="Path" fill="#FFFFFF" fill-rule="nonzero"/>
            <path d="M212.402,24.56 L212.3,46.608 C212.3,47.089 212.041,47.533 211.624,47.774 L200.226,54.361 C199.421,54.824 198.44,54.842 197.626,54.417 L191.991,51.484 C191.538,51.252 191.26,50.781 191.26,50.272 L191.362,28.196" id="Path" stroke="#00402A" stroke-width="0.5" stroke-linejoin="round"/>
            <path d="M212.393,45.951 L199.791,52.992 C199.255,53.298 198.607,53.335 198.034,53.103 L196.063,52.298 C195.554,52.086 195.221,51.595 195.221,51.04 L195.295,34.331 C195.295,33.359 196.294,32.702 197.192,33.1 L197.534,33.248 C198.32,33.591 199.227,33.544 199.977,33.109 L212.31,25.976 L212.402,45.961 L212.393,45.951 Z" id="Path" stroke="#00402A" stroke-width="0.5" fill="#FFFFFF" fill-rule="nonzero" stroke-linejoin="round"/>
            <line x1="207.896" y1="35.099" x2="203.307" y2="37.606" id="Path" stroke="#00A443" stroke-width="0.5" stroke-linejoin="round"/>
            <line x1="207.887" y1="36.421" x2="203.307" y2="38.929" id="Path" stroke="#00A443" stroke-width="0.5" stroke-linejoin="round"/>
            <line x1="207.887" y1="37.745" x2="203.298" y2="40.252" id="Path" stroke="#00A443" stroke-width="0.5" stroke-linejoin="round"/>
            <line x1="207.878" y1="39.067" x2="203.298" y2="41.575" id="Path" stroke="#00402A" stroke-width="0.5" stroke-linejoin="round"/>
            <path d="M191.372,49.467 L194.193,51.17 L194.277,33.137 C194.277,32.156 193.759,31.25 192.907,30.769 L191.399,29.917 L191.399,49.624" id="Path" fill="#FFFFFF" fill-rule="nonzero"/>
            <path d="M191.372,49.467 L194.193,51.17 L194.277,33.137 C194.277,32.156 193.759,31.25 192.907,30.769 L191.399,29.917 L191.399,49.624" id="Path" stroke="#00402A" stroke-width="0.5" stroke-linejoin="round"/>
            <line x1="199.162" y1="33.535" x2="199.069" y2="53.362" id="Path" stroke="#00402A" stroke-width="0.5" stroke-linejoin="round"/>
            <path d="M212.402,24.56 L206.351,21.119 C205.519,20.647 204.492,20.647 203.659,21.119 L191.354,28.206 L197.617,31.675 C198.45,32.138 199.468,32.129 200.301,31.638 L212.402,24.56 Z" id="Path" stroke="#00402A" stroke-width="0.5" fill="#00A443" fill-rule="nonzero" stroke-linejoin="round"/>
            <polygon id="Path" stroke="#00402A" stroke-width="0.5" fill="#FFFFFF" fill-rule="nonzero" stroke-linejoin="round" points="206.536 22.876 195.915 29.084 194.176 28.113 205.038 21.905"/>
            <line x1="203.668" y1="22.719" x2="205.14" y2="23.654" id="Path" stroke="#00402A" stroke-width="0.5" stroke-linejoin="round"/>
            <line x1="202.031" y1="23.709" x2="203.502" y2="24.653" id="Path" stroke="#00402A" stroke-width="0.5" stroke-linejoin="round"/>
            <line x1="200.485" y1="24.597" x2="201.956" y2="25.541" id="Path" stroke="#00402A" stroke-width="0.5" stroke-linejoin="round"/>
            <line x1="198.867" y1="25.458" x2="200.338" y2="26.392" id="Path" stroke="#00402A" stroke-width="0.5" stroke-linejoin="round"/>
            <line x1="197.22" y1="26.411" x2="198.682" y2="27.354" id="Path" stroke="#00402A" stroke-width="0.5" stroke-linejoin="round"/>
            <line x1="195.703" y1="27.336" x2="197.174" y2="28.28" id="Path" stroke="#00402A" stroke-width="0.5" stroke-linejoin="round"/>
            <path d="M197.543,32.794 L197.441,54.842 C197.441,55.323 197.182,55.767 196.766,56.008 L185.367,62.596 C184.562,63.058 183.582,63.077 182.768,62.651 L177.133,59.718 C176.68,59.487 176.402,59.015 176.402,58.506 L176.504,36.431" id="Path" fill="#FFFFFF" fill-rule="nonzero"/>
            <path d="M197.543,32.794 L197.441,54.842 C197.441,55.323 197.182,55.767 196.766,56.008 L185.367,62.596 C184.562,63.058 183.582,63.077 182.768,62.651 L177.133,59.718 C176.68,59.487 176.402,59.015 176.402,58.506 L176.504,36.431" id="Path" stroke="#00402A" stroke-width="0.5" stroke-linejoin="round"/>
            <path d="M197.534,54.186 L184.933,61.227 C184.396,61.532 183.748,61.569 183.175,61.338 L181.204,60.533 C180.695,60.32 180.362,59.83 180.362,59.274 L180.436,42.565 C180.436,41.594 181.435,40.937 182.333,41.335 L182.675,41.483 C183.462,41.825 184.368,41.779 185.118,41.344 L197.451,34.21 L197.543,54.195 L197.534,54.186 Z" id="Path" stroke="#00402A" stroke-width="0.5" fill="#FFFFFF" fill-rule="nonzero" stroke-linejoin="round"/>
            <line x1="193.038" y1="43.333" x2="188.458" y2="45.84" id="Path" stroke="#00A443" stroke-width="0.5" stroke-linejoin="round"/>
            <line x1="193.037" y1="44.656" x2="188.448" y2="47.163" id="Path" stroke="#00A443" stroke-width="0.5" stroke-linejoin="round"/>
            <line x1="193.029" y1="45.979" x2="188.44" y2="48.486" id="Path" stroke="#00A443" stroke-width="0.5" stroke-linejoin="round"/>
            <line x1="193.019" y1="47.302" x2="188.44" y2="49.81" id="Path" stroke="#00A443" stroke-width="0.5" stroke-linejoin="round"/>
            <path d="M176.513,57.702 L179.335,59.404 L179.419,41.372 C179.419,40.391 178.9,39.484 178.049,39.003 L176.541,38.152 L176.541,57.859" id="Path" fill="#5BD38C" fill-rule="nonzero"/>
            <path d="M176.513,57.702 L179.335,59.404 L179.419,41.372 C179.419,40.391 178.9,39.484 178.049,39.003 L176.541,38.152 L176.541,57.859" id="Path" stroke="#00402A" stroke-width="0.5" stroke-linejoin="round"/>
            <line x1="184.304" y1="41.769" x2="184.22" y2="61.596" id="Path" stroke="#00402A" stroke-width="0.5" stroke-linejoin="round"/>
            <path d="M197.542,32.795 L191.492,29.353 C190.659,28.881 189.632,28.881 188.799,29.353 L176.494,36.44 L182.758,39.91 C183.59,40.372 184.608,40.363 185.441,39.873 L197.542,32.795 Z" id="Path" stroke="#00402A" stroke-width="0.5" fill="#00A443" fill-rule="nonzero" stroke-linejoin="round"/>
            <polygon id="Path" stroke="#00402A" stroke-width="0.5" fill="#FFFFFF" fill-rule="nonzero" stroke-linejoin="round" points="191.677 31.111 181.056 37.319 179.317 36.347 190.179 30.139"/>
            <line x1="188.809" y1="30.954" x2="190.28" y2="31.888" id="Path" stroke="#00402A" stroke-width="0.5" stroke-linejoin="round"/>
            <line x1="187.181" y1="31.943" x2="188.643" y2="32.887" id="Path" stroke="#00402A" stroke-width="0.5" stroke-linejoin="round"/>
            <line x1="185.627" y1="32.832" x2="187.098" y2="33.775" id="Path" stroke="#00402A" stroke-width="0.5" stroke-linejoin="round"/>
            <line x1="184.017" y1="33.692" x2="185.479" y2="34.627" id="Path" stroke="#00402A" stroke-width="0.5" stroke-linejoin="round"/>
            <line x1="182.36" y1="34.645" x2="183.822" y2="35.589" id="Path" stroke="#00402A" stroke-width="0.5" stroke-linejoin="round"/>
            <line x1="180.853" y1="35.58" x2="182.314" y2="36.514" id="Path" stroke="#00402A" stroke-width="0.5" stroke-linejoin="round"/>
            <path d="M227.918,34.71 L227.816,56.758 C227.816,57.239 227.557,57.683 227.141,57.924 L215.742,64.511 C214.937,64.974 213.956,64.992 213.142,64.567 L207.508,61.634 C207.054,61.402 206.777,60.93 206.777,60.422 L206.878,38.346" id="Path" fill="#FFFFFF" fill-rule="nonzero"/>
            <path d="M227.918,34.71 L227.816,56.758 C227.816,57.239 227.557,57.683 227.141,57.924 L215.742,64.511 C214.937,64.974 213.956,64.992 213.142,64.567 L207.508,61.634 C207.054,61.402 206.777,60.93 206.777,60.422 L206.878,38.346" id="Path" stroke="#00402A" stroke-width="0.5" stroke-linejoin="round"/>
            <path d="M227.909,56.092 L215.308,63.132 C214.771,63.438 214.124,63.475 213.55,63.243 L211.579,62.438 C211.07,62.226 210.737,61.735 210.737,61.18 L210.811,44.471 C210.811,43.499 211.811,42.843 212.708,43.24 L213.05,43.388 C213.837,43.731 214.743,43.684 215.493,43.25 L227.826,36.116 L227.918,56.101 L227.909,56.092 Z" id="Path" stroke="#00402A" stroke-width="0.5" fill="#FFFFFF" fill-rule="nonzero" stroke-linejoin="round"/>
            <line x1="223.412" y1="45.239" x2="218.833" y2="47.746" id="Path" stroke="#00A443" stroke-width="0.5" stroke-linejoin="round"/>
            <line x1="223.412" y1="46.562" x2="218.823" y2="49.069" id="Path" stroke="#00A443" stroke-width="0.5" stroke-linejoin="round"/>
            <line x1="223.403" y1="47.885" x2="218.814" y2="50.392" id="Path" stroke="#00402A" stroke-width="0.5" stroke-linejoin="round"/>
            <line x1="223.394" y1="49.217" x2="218.814" y2="51.725" id="Path" stroke="#00402A" stroke-width="0.5" stroke-linejoin="round"/>
            <path d="M206.887,59.607 L209.709,61.31 L209.793,43.277 C209.793,42.297 209.275,41.39 208.423,40.909 L206.915,40.058 L206.915,59.765" id="Path" fill="#FFFFFF" fill-rule="nonzero"/>
            <path d="M206.887,59.607 L209.709,61.31 L209.793,43.277 C209.793,42.297 209.275,41.39 208.423,40.909 L206.915,40.058 L206.915,59.765" id="Path" stroke="#00402A" stroke-width="0.5" stroke-linejoin="round"/>
            <line x1="214.678" y1="43.675" x2="214.595" y2="63.503" id="Path" stroke="#00402A" stroke-width="0.5" stroke-linejoin="round"/>
            <path d="M227.918,34.71 L221.867,31.268 C221.035,30.796 220.008,30.796 219.175,31.268 L206.87,38.355 L213.133,41.825 C213.966,42.287 214.984,42.278 215.816,41.788 L227.918,34.71 Z" id="Path" stroke="#00402A" stroke-width="0.5" fill="#00A443" fill-rule="nonzero" stroke-linejoin="round"/>
            <polygon id="Path" stroke="#00402A" stroke-width="0.5" fill="#FFFFFF" fill-rule="nonzero" stroke-linejoin="round" points="222.062 33.017 211.441 39.225 209.692 38.254 220.554 32.045"/>
            <line x1="219.184" y1="32.859" x2="220.655" y2="33.794" id="Path" stroke="#00402A" stroke-width="0.5" stroke-linejoin="round"/>
            <line x1="217.555" y1="33.85" x2="219.017" y2="34.793" id="Path" stroke="#00402A" stroke-width="0.5" stroke-linejoin="round"/>
            <line x1="216.001" y1="34.747" x2="217.472" y2="35.682" id="Path" stroke="#00402A" stroke-width="0.5" stroke-linejoin="round"/>
            <line x1="214.391" y1="35.598" x2="215.853" y2="36.533" id="Path" stroke="#00402A" stroke-width="0.5" stroke-linejoin="round"/>
            <line x1="212.735" y1="36.56" x2="214.197" y2="37.495" id="Path" stroke="#00402A" stroke-width="0.5" stroke-linejoin="round"/>
            <line x1="211.227" y1="37.485" x2="212.688" y2="38.42" id="Path" stroke="#00402A" stroke-width="0.5" stroke-linejoin="round"/>
            <path d="M213.06,42.944 L212.958,64.992 C212.958,65.473 212.699,65.917 212.282,66.158 L200.884,72.745 C200.079,73.208 199.098,73.227 198.284,72.801 L192.649,69.868 C192.196,69.637 191.918,69.165 191.918,68.656 L192.02,46.58" id="Path" fill="#FFFFFF" fill-rule="nonzero"/>
            <path d="M213.06,42.944 L212.958,64.992 C212.958,65.473 212.699,65.917 212.282,66.158 L200.884,72.745 C200.079,73.208 199.098,73.227 198.284,72.801 L192.649,69.868 C192.196,69.637 191.918,69.165 191.918,68.656 L192.02,46.58" id="Path" stroke="#00402A" stroke-width="0.5" stroke-linejoin="round"/>
            <path d="M213.05,64.326 L200.448,71.367 C199.912,71.672 199.264,71.709 198.691,71.478 L196.72,70.673 C196.211,70.46 195.878,69.97 195.878,69.415 L195.952,52.705 C195.952,51.734 196.951,51.077 197.849,51.475 L198.191,51.623 C198.977,51.965 199.884,51.919 200.634,51.484 L212.967,44.351 L213.059,64.335 L213.05,64.326 Z" id="Path" stroke="#00402A" stroke-width="0.5" fill="#FFFFFF" fill-rule="nonzero" stroke-linejoin="round"/>
            <line x1="208.563" y1="53.473" x2="203.974" y2="55.98" id="Path" stroke="#00A443" stroke-width="0.5" stroke-linejoin="round"/>
            <line x1="208.553" y1="54.796" x2="203.964" y2="57.304" id="Path" stroke="#00A443" stroke-width="0.5" stroke-linejoin="round"/>
            <line x1="208.544" y1="56.119" x2="203.964" y2="58.626" id="Path" stroke="#00A443" stroke-width="0.5" stroke-linejoin="round"/>
            <line x1="208.543" y1="57.452" x2="203.954" y2="59.959" id="Path" stroke="#00A443" stroke-width="0.5" stroke-linejoin="round"/>
            <path d="M192.03,67.842 L194.851,69.544 L194.935,51.512 C194.935,50.531 194.417,49.624 193.565,49.143 L192.057,48.292 L192.057,67.999" id="Path" fill="#5BD38C" fill-rule="nonzero"/>
            <path d="M192.03,67.842 L194.851,69.544 L194.935,51.512 C194.935,50.531 194.417,49.624 193.565,49.143 L192.057,48.292 L192.057,67.999" id="Path" stroke="#00402A" stroke-width="0.5" stroke-linejoin="round"/>
            <line x1="199.828" y1="51.91" x2="199.735" y2="71.737" id="Path" stroke="#00402A" stroke-width="0.5" stroke-linejoin="round"/>
            <path d="M213.059,42.944 L207.008,39.502 C206.175,39.03 205.148,39.03 204.316,39.502 L192.01,46.589 L198.274,50.059 C199.107,50.522 200.124,50.512 200.957,50.022 L213.059,42.944 Z" id="Path" stroke="#00402A" stroke-width="0.5" fill="#00A443" fill-rule="nonzero" stroke-linejoin="round"/>
            <polygon id="Path" stroke="#00402A" stroke-width="0.5" fill="#FFFFFF" fill-rule="nonzero" stroke-linejoin="round" points="207.203 41.251 196.582 47.459 194.842 46.488 205.704 40.28"/>
            <line x1="204.335" y1="41.094" x2="205.797" y2="42.028" id="Path" stroke="#00402A" stroke-width="0.5" stroke-linejoin="round"/>
            <line x1="202.697" y1="42.084" x2="204.159" y2="43.028" id="Path" stroke="#00402A" stroke-width="0.5" stroke-linejoin="round"/>
            <line x1="201.151" y1="42.981" x2="202.613" y2="43.916" id="Path" stroke="#00402A" stroke-width="0.5" stroke-linejoin="round"/>
            <line x1="199.533" y1="43.833" x2="200.995" y2="44.767" id="Path" stroke="#00402A" stroke-width="0.5" stroke-linejoin="round"/>
            <line x1="197.876" y1="44.795" x2="199.347" y2="45.729" id="Path" stroke="#00402A" stroke-width="0.5" stroke-linejoin="round"/>
            <line x1="196.368" y1="45.72" x2="197.83" y2="46.654" id="Path" stroke="#00402A" stroke-width="0.5" stroke-linejoin="round"/>
            <path d="M243.444,43.592 L243.342,65.64 C243.342,66.121 243.083,66.565 242.667,66.805 L231.268,73.393 C230.463,73.855 229.482,73.874 228.668,73.448 L223.034,70.515 C222.58,70.284 222.303,69.812 222.303,69.303 L222.404,47.228" id="Path" fill="#FFFFFF" fill-rule="nonzero"/>
            <path d="M243.444,43.592 L243.342,65.64 C243.342,66.121 243.083,66.565 242.667,66.805 L231.268,73.393 C230.463,73.855 229.482,73.874 228.668,73.448 L223.034,70.515 C222.58,70.284 222.303,69.812 222.303,69.303 L222.404,47.228" id="Path" stroke="#00402A" stroke-width="0.5" stroke-linejoin="round"/>
            <path d="M243.434,64.983 L230.832,72.024 C230.296,72.329 229.648,72.366 229.074,72.135 L227.104,71.33 C226.595,71.117 226.262,70.626 226.262,70.071 L226.336,53.362 C226.336,52.391 227.335,51.734 228.232,52.131 L228.575,52.279 C229.361,52.622 230.268,52.576 231.017,52.141 L243.35,45.007 L243.443,64.992 L243.434,64.983 Z" id="Path" stroke="#00402A" stroke-width="0.5" fill="#FFFFFF" fill-rule="nonzero" stroke-linejoin="round"/>
            <line x1="238.937" y1="54.13" x2="234.348" y2="56.637" id="Path" stroke="#00A443" stroke-width="0.5" stroke-linejoin="round"/>
            <line x1="238.927" y1="55.453" x2="234.338" y2="57.96" id="Path" stroke="#00A443" stroke-width="0.5" stroke-linejoin="round"/>
            <line x1="238.918" y1="56.776" x2="234.338" y2="59.284" id="Path" stroke="#00402A" stroke-width="0.5" stroke-linejoin="round"/>
            <line x1="238.919" y1="58.099" x2="234.33" y2="60.606" id="Path" stroke="#00402A" stroke-width="0.5" stroke-linejoin="round"/>
            <path d="M222.413,68.498 L225.234,70.201 L225.318,52.168 C225.318,51.188 224.8,50.281 223.948,49.8 L222.44,48.949 L222.44,68.656" id="Path" fill="#FFFFFF" fill-rule="nonzero"/>
            <path d="M222.413,68.498 L225.234,70.201 L225.318,52.168 C225.318,51.188 224.8,50.281 223.948,49.8 L222.44,48.949 L222.44,68.656" id="Path" stroke="#00402A" stroke-width="0.5" stroke-linejoin="round"/>
            <line x1="230.204" y1="52.566" x2="230.111" y2="72.384" id="Path" stroke="#00402A" stroke-width="0.5" stroke-linejoin="round"/>
            <path d="M243.442,43.592 L237.391,40.15 C236.559,39.678 235.532,39.678 234.699,40.15 L222.394,47.237 L228.657,50.707 C229.49,51.17 230.508,51.16 231.341,50.67 L243.442,43.592 Z" id="Path" stroke="#00402A" stroke-width="0.5" fill="#00A443" fill-rule="nonzero" stroke-linejoin="round"/>
            <polygon id="Path" stroke="#00402A" stroke-width="0.5" fill="#FFFFFF" fill-rule="nonzero" stroke-linejoin="round" points="237.577 41.899 226.956 48.116 225.217 47.145 236.079 40.937"/>
            <line x1="234.708" y1="41.742" x2="236.17" y2="42.676" id="Path" stroke="#00402A" stroke-width="0.5" stroke-linejoin="round"/>
            <line x1="233.072" y1="42.741" x2="234.533" y2="43.675" id="Path" stroke="#00402A" stroke-width="0.5" stroke-linejoin="round"/>
            <line x1="231.526" y1="43.629" x2="232.988" y2="44.563" id="Path" stroke="#00402A" stroke-width="0.5" stroke-linejoin="round"/>
            <line x1="229.907" y1="44.48" x2="231.369" y2="45.424" id="Path" stroke="#00402A" stroke-width="0.5" stroke-linejoin="round"/>
            <line x1="228.25" y1="45.442" x2="229.722" y2="46.377" id="Path" stroke="#00402A" stroke-width="0.5" stroke-linejoin="round"/>
            <line x1="226.741" y1="46.368" x2="228.203" y2="47.302" id="Path" stroke="#00402A" stroke-width="0.5" stroke-linejoin="round"/>
            <path d="M228.584,51.826 L228.482,73.874 C228.482,74.355 228.223,74.799 227.807,75.04 L216.408,81.627 C215.603,82.09 214.623,82.108 213.808,81.683 L208.174,78.75 C207.72,78.519 207.443,78.047 207.443,77.538 L207.545,55.462" id="Path" fill="#FFFFFF" fill-rule="nonzero"/>
            <path d="M228.584,51.826 L228.482,73.874 C228.482,74.355 228.223,74.799 227.807,75.04 L216.408,81.627 C215.603,82.09 214.623,82.108 213.808,81.683 L208.174,78.75 C207.72,78.519 207.443,78.047 207.443,77.538 L207.545,55.462" id="Path" stroke="#00402A" stroke-width="0.5" stroke-linejoin="round"/>
            <path d="M228.575,73.217 L215.974,80.258 C215.437,80.563 214.79,80.6 214.216,80.369 L212.245,79.564 C211.736,79.351 211.403,78.861 211.403,78.306 L211.477,61.596 C211.477,60.625 212.477,59.968 213.374,60.366 L213.716,60.514 C214.503,60.856 215.409,60.81 216.159,60.375 L228.492,53.242 L228.585,73.226 L228.575,73.217 Z" id="Path" stroke="#00402A" stroke-width="0.5" fill="#FFFFFF" fill-rule="nonzero" stroke-linejoin="round"/>
            <line x1="224.079" y1="62.364" x2="219.49" y2="64.872" id="Path" stroke="#00A443" stroke-width="0.5" stroke-linejoin="round"/>
            <line x1="224.07" y1="63.688" x2="219.49" y2="66.195" id="Path" stroke="#00A443" stroke-width="0.5" stroke-linejoin="round"/>
            <line x1="224.069" y1="65.011" x2="219.48" y2="67.518" id="Path" stroke="#00A443" stroke-width="0.5" stroke-linejoin="round"/>
            <line x1="224.06" y1="66.333" x2="219.47" y2="68.841" id="Path" stroke="#00A443" stroke-width="0.5" stroke-linejoin="round"/>
            <path d="M207.554,76.733 L210.376,78.435 L210.459,60.403 C210.459,59.422 209.941,58.515 209.09,58.034 L207.581,57.183 L207.581,76.89" id="Path" fill="#5BD38C" fill-rule="nonzero"/>
            <path d="M207.554,76.733 L210.376,78.435 L210.459,60.403 C210.459,59.422 209.941,58.515 209.09,58.034 L207.581,57.183 L207.581,76.89" id="Path" stroke="#00402A" stroke-width="0.5" stroke-linejoin="round"/>
            <line x1="215.344" y1="60.801" x2="215.252" y2="80.619" id="Path" stroke="#00402A" stroke-width="0.5" stroke-linejoin="round"/>
            <path d="M228.584,51.826 L222.534,48.385 C221.701,47.913 220.674,47.913 219.841,48.385 L207.536,55.472 L213.8,58.941 C214.632,59.404 215.65,59.395 216.483,58.904 L228.584,51.826 Z" id="Path" stroke="#00402A" stroke-width="0.5" fill="#00A443" fill-rule="nonzero" stroke-linejoin="round"/>
            <polygon id="Path" stroke="#00402A" stroke-width="0.5" fill="#FFFFFF" fill-rule="nonzero" stroke-linejoin="round" points="222.718 50.133 212.096 56.351 210.357 55.379 221.219 49.171"/>
            <line x1="219.85" y1="49.976" x2="221.311" y2="50.92" id="Path" stroke="#00402A" stroke-width="0.5" stroke-linejoin="round"/>
            <line x1="218.212" y1="50.975" x2="219.683" y2="51.91" id="Path" stroke="#00402A" stroke-width="0.5" stroke-linejoin="round"/>
            <line x1="216.667" y1="51.863" x2="218.138" y2="52.798" id="Path" stroke="#00402A" stroke-width="0.5" stroke-linejoin="round"/>
            <line x1="215.047" y1="52.714" x2="216.518" y2="53.658" id="Path" stroke="#00402A" stroke-width="0.5" stroke-linejoin="round"/>
            <line x1="213.393" y1="53.677" x2="214.864" y2="54.611" id="Path" stroke="#00402A" stroke-width="0.5" stroke-linejoin="round"/>
            <line x1="211.884" y1="54.602" x2="213.355" y2="55.537" id="Path" stroke="#00402A" stroke-width="0.5" stroke-linejoin="round"/>
            <path d="M258.959,52.604 L258.857,74.651 C258.857,75.132 258.598,75.577 258.182,75.817 L246.783,82.405 C245.978,82.867 244.997,82.886 244.183,82.46 L238.549,79.527 C238.095,79.296 237.818,78.824 237.818,78.315 L237.919,56.24" id="Path" fill="#FFFFFF" fill-rule="nonzero"/>
            <path d="M258.959,52.604 L258.857,74.651 C258.857,75.132 258.598,75.577 258.182,75.817 L246.783,82.405 C245.978,82.867 244.997,82.886 244.183,82.46 L238.549,79.527 C238.095,79.296 237.818,78.824 237.818,78.315 L237.919,56.24" id="Path" stroke="#00402A" stroke-width="0.5" stroke-linejoin="round"/>
            <path d="M258.95,73.985 L246.349,81.026 C245.812,81.331 245.164,81.368 244.591,81.137 L242.62,80.332 C242.111,80.119 241.778,79.629 241.778,79.074 L241.852,62.364 C241.852,61.393 242.851,60.736 243.749,61.134 L244.091,61.282 C244.878,61.624 245.784,61.578 246.534,61.143 L258.867,54.01 L258.959,73.994 L258.95,73.985 Z" id="Path" stroke="#00402A" stroke-width="0.5" fill="#FFFFFF" fill-rule="nonzero" stroke-linejoin="round"/>
            <line x1="254.453" y1="63.132" x2="249.864" y2="65.64" id="Path" stroke="#00A443" stroke-width="0.5" stroke-linejoin="round"/>
            <line x1="254.444" y1="64.456" x2="249.864" y2="66.963" id="Path" stroke="#00A443" stroke-width="0.5" stroke-linejoin="round"/>
            <line x1="254.443" y1="65.778" x2="249.854" y2="68.286" id="Path" stroke="#00A443" stroke-width="0.5" stroke-linejoin="round"/>
            <line x1="254.435" y1="67.111" x2="249.846" y2="69.618" id="Path" stroke="#00A443" stroke-width="0.5" stroke-linejoin="round"/>
            <path d="M237.929,77.501 L240.751,79.203 L240.834,61.171 C240.834,60.19 240.316,59.283 239.465,58.802 L237.956,57.951 L237.956,77.658" id="Path" fill="#FFFFFF" fill-rule="nonzero"/>
            <path d="M237.929,77.501 L240.751,79.203 L240.834,61.171 C240.834,60.19 240.316,59.283 239.465,58.802 L237.956,57.951 L237.956,77.658" id="Path" stroke="#00402A" stroke-width="0.5" stroke-linejoin="round"/>
            <line x1="245.719" y1="61.569" x2="245.627" y2="81.396" id="Path" stroke="#00402A" stroke-width="0.5" stroke-linejoin="round"/>
            <path d="M258.958,52.603 L252.907,49.162 C252.075,48.69 251.048,48.69 250.215,49.162 L237.91,56.249 L244.173,59.718 C245.006,60.181 246.024,60.172 246.856,59.681 L258.958,52.603 Z" id="Path" stroke="#00402A" stroke-width="0.5" fill="#00A443" fill-rule="nonzero" stroke-linejoin="round"/>
            <polygon id="Path" stroke="#00402A" stroke-width="0.5" fill="#FFFFFF" fill-rule="nonzero" stroke-linejoin="round" points="253.093 50.91 242.472 57.119 240.732 56.147 251.594 49.939"/>
            <line x1="250.225" y1="50.753" x2="251.696" y2="51.687" id="Path" stroke="#00402A" stroke-width="0.5" stroke-linejoin="round"/>
            <line x1="248.587" y1="51.743" x2="250.058" y2="52.687" id="Path" stroke="#00402A" stroke-width="0.5" stroke-linejoin="round"/>
            <line x1="247.042" y1="52.641" x2="248.513" y2="53.575" id="Path" stroke="#00402A" stroke-width="0.5" stroke-linejoin="round"/>
            <line x1="245.423" y1="53.492" x2="246.894" y2="54.426" id="Path" stroke="#00402A" stroke-width="0.5" stroke-linejoin="round"/>
            <line x1="243.776" y1="54.454" x2="245.238" y2="55.389" id="Path" stroke="#00402A" stroke-width="0.5" stroke-linejoin="round"/>
            <line x1="242.259" y1="55.379" x2="243.73" y2="56.313" id="Path" stroke="#00402A" stroke-width="0.5" stroke-linejoin="round"/>
            <path d="M244.1,60.838 L243.998,82.886 C243.998,83.367 243.739,83.811 243.323,84.051 L231.924,90.639 C231.119,91.102 230.138,91.12 229.324,90.694 L223.69,87.762 C223.236,87.53 222.959,87.058 222.959,86.55 L223.061,64.474" id="Path" fill="#FFFFFF" fill-rule="nonzero"/>
            <path d="M244.1,60.838 L243.998,82.886 C243.998,83.367 243.739,83.811 243.323,84.051 L231.924,90.639 C231.119,91.102 230.138,91.12 229.324,90.694 L223.69,87.762 C223.236,87.53 222.959,87.058 222.959,86.55 L223.061,64.474" id="Path" stroke="#00402A" stroke-width="0.5" stroke-linejoin="round"/>
            <path d="M244.091,82.219 L231.489,89.26 C230.953,89.566 230.305,89.603 229.732,89.371 L227.761,88.566 C227.252,88.354 226.919,87.863 226.919,87.308 L226.993,70.599 C226.993,69.627 227.992,68.97 228.89,69.368 L229.232,69.516 C230.018,69.859 230.925,69.812 231.675,69.378 L244.008,62.244 L244.1,82.229 L244.091,82.219 Z" id="Path" stroke="#00402A" stroke-width="0.5" fill="#FFFFFF" fill-rule="nonzero" stroke-linejoin="round"/>
            <line x1="239.594" y1="71.367" x2="235.014" y2="73.874" id="Path" stroke="#00A443" stroke-width="0.5" stroke-linejoin="round"/>
            <line x1="239.594" y1="72.69" x2="235.005" y2="75.197" id="Path" stroke="#00A443" stroke-width="0.5" stroke-linejoin="round"/>
            <line x1="239.585" y1="74.013" x2="234.996" y2="76.52" id="Path" stroke="#00A443" stroke-width="0.5" stroke-linejoin="round"/>
            <line x1="239.576" y1="75.345" x2="234.996" y2="77.853" id="Path" stroke="#00A443" stroke-width="0.5" stroke-linejoin="round"/>
            <path d="M223.071,85.735 L225.893,87.438 L225.976,69.405 C225.976,68.425 225.458,67.518 224.607,67.037 L223.099,66.186 L223.099,85.893" id="Path" fill="#5BD38C" fill-rule="nonzero"/>
            <path d="M223.071,85.735 L225.893,87.438 L225.976,69.405 C225.976,68.425 225.458,67.518 224.607,67.037 L223.099,66.186 L223.099,85.893" id="Path" stroke="#00402A" stroke-width="0.5" stroke-linejoin="round"/>
            <line x1="230.86" y1="69.803" x2="230.777" y2="89.631" id="Path" stroke="#00402A" stroke-width="0.5" stroke-linejoin="round"/>
            <path d="M244.099,60.838 L238.048,57.396 C237.215,56.924 236.188,56.924 235.355,57.396 L223.05,64.483 L229.314,67.953 C230.146,68.415 231.164,68.406 231.997,67.916 L244.099,60.838 Z" id="Path" stroke="#00402A" stroke-width="0.5" fill="#00A443" fill-rule="nonzero" stroke-linejoin="round"/>
            <polygon id="Path" stroke="#00402A" stroke-width="0.5" fill="#FFFFFF" fill-rule="nonzero" stroke-linejoin="round" points="238.234 59.145 227.612 65.353 225.873 64.382 236.735 58.173"/>
            <line x1="235.366" y1="58.987" x2="236.837" y2="59.922" id="Path" stroke="#00402A" stroke-width="0.5" stroke-linejoin="round"/>
            <line x1="233.728" y1="59.978" x2="235.199" y2="60.921" id="Path" stroke="#00402A" stroke-width="0.5" stroke-linejoin="round"/>
            <line x1="232.183" y1="60.875" x2="233.654" y2="61.809" id="Path" stroke="#00402A" stroke-width="0.5" stroke-linejoin="round"/>
            <line x1="230.573" y1="61.726" x2="232.035" y2="62.661" id="Path" stroke="#00402A" stroke-width="0.5" stroke-linejoin="round"/>
            <line x1="228.917" y1="62.688" x2="230.379" y2="63.623" id="Path" stroke="#00402A" stroke-width="0.5" stroke-linejoin="round"/>
            <line x1="227.409" y1="63.613" x2="228.871" y2="64.548" id="Path" stroke="#00402A" stroke-width="0.5" stroke-linejoin="round"/>
            <polygon id="Path" stroke="#00402A" stroke-width="0.5" fill="#FFFFFF" fill-rule="nonzero" stroke-linejoin="round" points="242.915 90.241 242.776 137.556 150.125 84.06 150.264 36.754"/>
            <polygon id="Path" stroke="#00402A" stroke-width="0.5" fill="#B0A9A3" fill-rule="nonzero" stroke-linejoin="round" points="183.573 59.783 183.462 99.123 169.084 90.824 169.195 51.475"/>
            <polygon id="Path" stroke="#00402A" stroke-width="0.5" fill="#D8CFC7" fill-rule="nonzero" stroke-linejoin="round" points="166.91 49.929 166.799 89.27 152.421 80.97 152.532 41.621"/>
            <line x1="158.787" y1="45.387" x2="158.787" y2="84.791" id="Path" stroke="#00402A" stroke-width="0.5" stroke-linejoin="round"/>
            <line x1="156.315" y1="68.517" x2="161.265" y2="71.413" id="Path" stroke="#00402A" stroke-width="0.5" stroke-linejoin="round"/>
            <polygon id="Path" stroke="#00402A" stroke-width="0.5" stroke-linejoin="round" points="241.556 91.092 241.398 135.262 151.236 83.173 151.357 39.382"/>
            <polygon id="Path" stroke="#00402A" stroke-width="0.5" fill="#D8CFC7" fill-rule="nonzero" stroke-linejoin="round" points="200.605 69.627 200.494 108.977 186.116 100.677 186.227 61.328"/>
            <line x1="192.492" y1="65.084" x2="192.492" y2="104.499" id="Path" stroke="#00402A" stroke-width="0.5" stroke-linejoin="round"/>
            <line x1="190.021" y1="88.224" x2="194.971" y2="91.111" id="Path" stroke="#00402A" stroke-width="0.5" stroke-linejoin="round"/>
            <polygon id="Path" stroke="#00A443" stroke-width="0.5" stroke-linejoin="round" points="239.65 92.415 239.539 131.765 225.161 123.456 225.282 84.116"/>
            <line x1="225.29" y1="99.308" x2="239.622" y2="107.635" id="Path" stroke="#00A443" stroke-width="0.5" stroke-linejoin="round"/>
            <line x1="225.29" y1="107.978" x2="239.622" y2="116.304" id="Path" stroke="#00A443" stroke-width="0.5" stroke-linejoin="round"/>
            <line x1="225.29" y1="90.639" x2="239.622" y2="98.975" id="Path" stroke="#00A443" stroke-width="0.5" stroke-linejoin="round"/>
            <line x1="225.29" y1="116.646" x2="239.622" y2="124.973" id="Path" stroke="#00A443" stroke-width="0.5" stroke-linejoin="round"/>
            <path id="Shape" fill="#00402A" fill-rule="nonzero"/>
        </g>
    </g>
</svg>
